# Blender 4.3.2
# www.blender.org
mtllib Ramp.mtl
o ramp
v -2.041485 0.000000 3.919853
v -2.041485 3.526804 3.919853
v -2.041485 0.000000 -3.919853
v 2.041485 0.000000 3.919853
v 2.041485 3.526804 3.919853
v 2.041485 0.000000 -3.919853
v -2.041485 0.087274 -3.919853
v -2.041485 3.120960 -0.523028
v -2.041485 2.724515 -0.619797
v -2.041485 2.341692 -0.761147
v -2.041485 1.976565 -0.943396
v -2.041485 1.633144 -1.163839
v -2.041485 1.315324 -1.419814
v -2.041485 1.026765 -1.708373
v -2.041485 0.770790 -2.026193
v -2.041485 0.550346 -2.369614
v -2.041485 0.368098 -2.734742
v -2.041485 0.226747 -3.117564
v -2.041485 0.129979 -3.514010
v 2.041485 0.087274 -3.919853
v 2.041485 0.129979 -3.514010
v 2.041485 0.226747 -3.117564
v 2.041485 0.368098 -2.734742
v 2.041485 0.550346 -2.369614
v 2.041485 0.770790 -2.026193
v 2.041485 1.026765 -1.708373
v 2.041485 1.315324 -1.419814
v 2.041485 1.633144 -1.163839
v 2.041485 1.976565 -0.943396
v 2.041485 2.341692 -0.761147
v 2.041485 2.724515 -0.619797
v 2.041485 3.120960 -0.523028
v -2.041485 3.526804 -0.208016
v -2.041485 3.255991 -0.508819
v -2.041485 3.495675 -0.351035
v -2.041485 3.394969 -0.462895
v 2.041485 3.255991 -0.508819
v 2.041485 3.526804 -0.208016
v 2.041485 3.394969 -0.462895
v 2.041485 3.495675 -0.351035
vn -0.0000 -0.0000 -1.0000
vn -0.0000 -0.0000 1.0000
vn -0.0000 -1.0000 -0.0000
vn 1.0000 -0.0000 -0.0000
vn -0.0000 0.9943 -0.1070
vn -0.0000 1.0000 -0.0000
vn -0.0000 0.1713 -0.9852
vn -0.0000 0.2922 -0.9563
vn -0.0000 0.3971 -0.9178
vn -0.0000 0.4941 -0.8694
vn -0.0000 0.5846 -0.8113
vn -0.0000 0.6681 -0.7440
vn -0.0000 0.7440 -0.6681
vn -0.0000 0.8113 -0.5846
vn -0.0000 0.8694 -0.4941
vn -0.0000 0.9178 -0.3971
vn -0.0000 0.9563 -0.2922
vn -0.0000 0.9852 -0.1713
vn -0.0000 0.9945 -0.1046
vn -1.0000 -0.0000 -0.0000
vn -0.0000 0.8899 -0.4561
vn -0.0000 0.5468 -0.8373
vn -0.0000 0.2104 -0.9776
vt 0.375000 0.250000
vt 0.414398 0.250000
vt 0.414398 0.500000
vt 0.375000 0.500000
vt 0.375000 0.750000
vt 0.625000 0.750000
vt 0.625000 1.000000
vt 0.375000 1.000000
vt 0.125000 0.500000
vt 0.125000 0.750000
vt 0.417013 0.524850
vt 0.422938 0.549124
vt 0.431593 0.572564
vt 0.442752 0.594921
vt 0.456249 0.615949
vt 0.471923 0.635409
vt 0.489591 0.653077
vt 0.509051 0.668751
vt 0.530079 0.682248
vt 0.552436 0.693407
vt 0.575876 0.702062
vt 0.600150 0.707987
vt 0.608418 0.708857
vt 0.616928 0.709819
vt 0.623094 0.711370
vt 0.625000 0.713040
vt 0.625000 0.713040
vt 0.875000 0.713040
vt 0.875000 0.750000
vt 0.875000 0.707987
vt 0.625000 0.707987
vt 0.625000 0.702062
vt 0.875000 0.702062
vt 0.625000 0.693407
vt 0.875000 0.693407
vt 0.625000 0.682248
vt 0.875000 0.682248
vt 0.625000 0.668751
vt 0.875000 0.668751
vt 0.625000 0.500000
vt 0.875000 0.500000
vt 0.625000 0.250000
vt 0.471923 0.500000
vt 0.471923 0.250000
vt 0.456249 0.500000
vt 0.456249 0.250000
vt 0.442752 0.500000
vt 0.442752 0.250000
vt 0.431593 0.500000
vt 0.431593 0.250000
vt 0.422938 0.500000
vt 0.422938 0.250000
vt 0.417013 0.500000
vt 0.417013 0.250000
vt 0.375000 0.000000
vt 0.625000 0.000000
vt 0.625000 0.036960
vt 0.623094 0.038630
vt 0.616927 0.040181
vt 0.608418 0.041143
vt 0.600150 0.042013
vt 0.575876 0.047938
vt 0.552436 0.056593
vt 0.530079 0.067752
vt 0.509051 0.081249
vt 0.489591 0.096923
vt 0.471923 0.114591
vt 0.456249 0.134051
vt 0.442752 0.155079
vt 0.431593 0.177436
vt 0.422938 0.200876
vt 0.417013 0.225150
vt 0.625000 0.711760
vt 0.875000 0.711760
vt 0.625000 0.709774
vt 0.875000 0.709774
vt 0.625000 0.708857
vt 0.875000 0.708857
s 1
f 3/1/1 7/2/1 20/3/1 6/4/1
f 4/5/2 5/6/2 2/7/2 1/8/2
f 3/9/3 6/4/3 4/5/3 1/10/3
f 6/4/4 20/3/4 21/11/4 22/12/4 23/13/4 24/14/4 25/15/4 26/16/4 27/17/4 28/18/4 29/19/4 30/20/4 31/21/4 32/22/4 37/23/4 39/24/4 40/25/4 38/26/4 5/6/4 4/5/4
f 38/27/5 33/28/5 2/29/6 5/6/6
f 8/30/7 32/31/7 31/32/8 9/33/8
f 9/33/8 31/32/8 30/34/9 10/35/9
f 10/35/9 30/34/9 29/36/10 11/37/10
f 11/37/10 29/36/10 28/38/11 12/39/11
f 12/39/11 28/38/11 27/40/12 13/41/12
f 13/42/12 27/40/12 26/43/13 14/44/13
f 14/44/13 26/43/13 25/45/14 15/46/14
f 15/46/14 25/45/14 24/47/15 16/48/15
f 16/48/15 24/47/15 23/49/16 17/50/16
f 17/50/16 23/49/16 22/51/17 18/52/17
f 18/52/17 22/51/17 21/53/18 19/54/18
f 19/54/18 21/53/18 20/3/19 7/2/19
f 1/55/20 2/56/20 33/57/20 35/58/20 36/59/20 34/60/20 8/61/20 9/62/20 10/63/20 11/64/20 12/65/20 13/66/20 14/67/20 15/68/20 16/69/20 17/70/20 18/71/20 19/72/20 7/2/20 3/1/20
f 33/28/5 38/27/5 40/73/21 35/74/21
f 35/74/21 40/73/21 39/75/22 36/76/22
f 36/76/22 39/75/22 37/77/23 34/78/23
f 34/78/23 37/77/23 32/31/7 8/30/7
