# Blender 4.3.2
# www.blender.org
mtllib small_rock_group_2_col.mtl
o small_rock_group_col
v -1.013421 0.000000 1.873501
v -2.146571 0.000000 -0.560637
v -2.146571 4.838350 -0.560637
v -1.013421 4.838350 1.873501
v -2.123954 0.000000 -1.626763
v -0.321220 0.000000 -2.678256
v -0.321220 4.838350 -2.678256
v -2.123954 4.838350 -1.626763
v 0.912441 0.000000 -2.645692
v 0.912441 4.838350 -2.645692
v 1.374204 0.000000 -1.183172
v 1.964185 0.000000 -0.542712
v 1.964185 4.838350 -0.542712
v 1.374204 4.838350 -1.183172
v 0.459098 0.000000 0.869085
v 0.212586 0.000000 1.784956
v 0.212586 4.838350 1.784956
v 0.459098 4.838350 0.869085
v 2.145973 0.000000 0.211240
v 1.450097 0.000000 0.926175
v 1.450097 4.838350 0.926175
v 2.145973 4.838350 0.211240
vn -0.9066 -0.0000 0.4220
vn -0.5038 -0.0000 -0.8638
vn -0.9998 -0.0000 -0.0212
vn 0.0720 -0.0000 0.9974
vn 0.0264 -0.0000 -0.9997
vn -0.0000 1.0000 -0.0000
vn 0.9536 -0.0000 -0.3011
vn 0.7355 -0.0000 -0.6775
vn -0.0000 -1.0000 -0.0000
vn 0.9656 -0.0000 0.2599
vn 0.9721 -0.0000 -0.2344
vn 0.7166 -0.0000 0.6975
vn -0.0575 -0.0000 0.9983
vt 0.625000 0.000000
vt 0.375000 0.068919
vt 0.375000 0.000000
vt 0.375000 0.323658
vt 0.625000 0.185266
vt 0.625000 0.323658
vt 0.375000 0.185266
vt 0.625000 0.841983
vt 0.375000 0.921579
vt 0.375000 0.841983
vt 0.375000 0.405914
vt 0.647794 0.557629
vt 0.875000 0.681081
vt 0.662072 0.730122
vt 0.375000 0.534835
vt 0.625000 0.405914
vt 0.625000 0.534835
vt 0.375000 0.602563
vt 0.625000 0.602563
vt 0.198658 0.500000
vt 0.375000 0.649531
vt 0.337928 0.730122
vt 0.625000 0.767194
vt 0.625000 0.649531
vt 0.375000 0.729875
vt 0.375000 0.767194
vt 0.625000 0.729875
vt 0.625000 0.068919
vt 0.625000 0.921579
vt 0.625000 0.649531
vt 0.719086 0.500000
vt 0.801342 0.500000
vt 0.875000 0.564734
vt 0.796579 0.750000
vt 0.716983 0.750000
vt 0.642209 0.712666
vt 0.125000 0.681081
vt 0.125000 0.564734
vt 0.280914 0.500000
vt 0.352206 0.557629
vt 0.357791 0.712666
vt 0.283017 0.750000
vt 0.203421 0.750000
s 0
f 4/1/1 2/2/1 1/3/1
f 6/4/2 8/5/2 7/6/2
f 2/2/3 8/5/3 5/7/3
f 17/8/4 1/9/4 16/10/4
f 7/6/5 9/11/5 6/4/5
f 14/12/6 3/13/6 18/14/6
f 11/15/7 10/16/7 14/17/7
f 12/18/8 14/17/8 13/19/8
f 6/20/9 19/21/9 15/22/9
f 16/10/10 18/23/10 17/8/10
f 13/19/11 19/21/11 12/18/11
f 22/24/12 20/25/12 19/21/12
f 15/26/13 21/27/13 18/23/13
f 4/1/1 3/28/1 2/2/1
f 6/4/2 5/7/2 8/5/2
f 2/2/3 3/28/3 8/5/3
f 17/8/4 4/29/4 1/9/4
f 7/6/5 10/16/5 9/11/5
f 22/30/6 13/19/6 14/12/6
f 14/12/6 10/31/6 7/32/6
f 7/32/6 8/33/6 3/13/6
f 3/13/6 4/34/6 17/35/6
f 18/14/6 21/36/6 22/30/6
f 3/13/6 17/35/6 18/14/6
f 14/12/6 7/32/6 3/13/6
f 18/14/6 22/30/6 14/12/6
f 11/15/7 9/11/7 10/16/7
f 12/18/8 11/15/8 14/17/8
f 2/37/9 5/38/9 6/20/9
f 6/20/9 9/39/9 11/40/9
f 11/40/9 12/18/9 19/21/9
f 19/21/9 20/41/9 15/22/9
f 15/22/9 16/42/9 1/43/9
f 1/43/9 2/37/9 6/20/9
f 6/20/9 11/40/9 19/21/9
f 15/22/9 1/43/9 6/20/9
f 16/10/10 15/26/10 18/23/10
f 13/19/11 22/24/11 19/21/11
f 22/24/12 21/27/12 20/25/12
f 15/26/13 20/25/13 21/27/13
