# Blender 4.3.2
# www.blender.org
mtllib small_rock_group_col.mtl
o small_rock_group_col.001
v -0.962893 0.000000 1.584150
v -1.860638 0.000000 0.147193
v -1.860638 5.221509 0.147193
v -0.962893 5.221509 1.584149
v -1.329173 -0.000000 -0.830319
v -0.870453 -0.000000 -1.947263
v -0.870453 5.221509 -1.947263
v -1.329173 5.221509 -0.830320
v 0.257324 -0.000000 -1.933913
v 0.257324 5.221509 -1.933913
v 1.796313 0.000000 0.884253
v 0.784554 0.000000 1.533332
v 0.784554 5.221509 1.533332
v 1.796313 5.221509 0.884253
v 0.832086 -0.000000 -1.423805
v 1.732791 -0.000000 -0.474194
v 1.732791 5.221509 -0.474194
v 0.832086 5.221509 -1.423805
vn -0.0000 1.0000 -0.0000
vn 0.0291 -0.0000 0.9996
vn -0.8481 -0.0000 0.5298
vn -0.9250 -0.0000 -0.3799
vn -0.8785 -0.0000 -0.4777
vn -0.0000 -1.0000 -0.0000
vn 0.0118 -0.0000 -0.9999
vn 0.5400 -0.0000 0.8417
vn 0.6638 -0.0000 -0.7479
vn 0.7255 -0.0000 -0.6882
vn 0.9989 -0.0000 -0.0467
vt 0.660895 0.531802
vt 0.875000 0.564734
vt 0.684690 0.750000
vt 0.625000 0.809690
vt 0.375000 0.921579
vt 0.375000 0.809690
vt 0.625000 0.000000
vt 0.375000 0.068919
vt 0.375000 0.000000
vt 0.375000 0.323658
vt 0.625000 0.185266
vt 0.625000 0.323658
vt 0.625000 0.068919
vt 0.375000 0.185266
vt 0.280914 0.500000
vt 0.315310 0.750000
vt 0.125000 0.681081
vt 0.375000 0.405914
vt 0.625000 0.697542
vt 0.375000 0.495907
vt 0.625000 0.405914
vt 0.625000 0.495907
vt 0.375000 0.602563
vt 0.625000 0.602563
vt 0.375000 0.697542
vt 0.719086 0.500000
vt 0.801342 0.500000
vt 0.875000 0.681081
vt 0.796579 0.750000
vt 0.625000 0.921579
vt 0.125000 0.564734
vt 0.198658 0.500000
vt 0.339105 0.531802
vt 0.203421 0.750000
s 1
f 18/1/1 8/2/1 13/3/1
f 13/4/2 1/5/2 12/6/2
f 4/7/3 2/8/3 1/9/3
f 6/10/4 8/11/4 7/12/4
f 3/13/5 5/14/5 2/8/5
f 9/15/6 12/16/6 2/17/6
f 7/12/7 9/18/7 6/10/7
f 12/6/8 14/19/8 13/4/8
f 15/20/9 10/21/9 18/22/9
f 16/23/10 18/22/10 17/24/10
f 17/24/11 11/25/11 16/23/11
f 14/19/1 17/24/1 18/1/1
f 18/1/1 10/26/1 7/27/1
f 8/2/1 3/28/1 4/29/1
f 18/1/1 7/27/1 8/2/1
f 13/3/1 14/19/1 18/1/1
f 8/2/1 4/29/1 13/3/1
f 13/4/2 4/30/2 1/5/2
f 4/7/3 3/13/3 2/8/3
f 6/10/4 5/14/4 8/11/4
f 3/13/5 8/11/5 5/14/5
f 5/31/6 6/32/6 9/15/6
f 9/15/6 15/33/6 16/23/6
f 16/23/6 11/25/6 12/16/6
f 12/16/6 1/34/6 2/17/6
f 2/17/6 5/31/6 9/15/6
f 9/15/6 16/23/6 12/16/6
f 7/12/7 10/21/7 9/18/7
f 12/6/8 11/25/8 14/19/8
f 15/20/9 9/18/9 10/21/9
f 16/23/10 15/20/10 18/22/10
f 17/24/11 14/19/11 11/25/11
